<svg id="Layer_1" data-name="Layer 1" xmlns="http://www.w3.org/2000/svg" viewBox="0 0 320 320"><defs><style>.cls-1{fill:#262626;}.cls-2{fill:#fb4e2e;}</style></defs><title>Artboard 40</title><circle class="cls-1" cx="75.46" cy="131.74" r="24.17"/><path class="cls-2" d="M116.53,202.62a24.18,24.18,0,0,0,45.58,16.14L198,117.38a24.17,24.17,0,0,0-45.57-16.14Z"/><path class="cls-2" d="M185.84,202.62a24.18,24.18,0,0,0,45.58,16.14l35.9-101.38a24.18,24.18,0,0,0-45.58-16.14Z"/><circle class="cls-1" cx="75.46" cy="210.69" r="24.17"/><path class="cls-1" d="M267.56,247.64A24.17,24.17,0,0,0,246.12,283,149.33,149.33,0,0,1,160,310.13C77.22,310.13,9.87,242.78,9.87,160A148.8,148.8,0,0,1,24.18,95.93a4.93,4.93,0,1,0-8.92-4.21A160,160,0,0,0,160,320a159.12,159.12,0,0,0,92.4-29.36,24.17,24.17,0,1,0,15.16-43Z"/><path class="cls-2" d="M273.14,46.86A159.89,159.89,0,0,0,62.58,33.05a24.19,24.19,0,1,0,6.6,7.36A148.67,148.67,0,0,1,160,9.87c82.78,0,150.13,67.35,150.13,150.13a148.42,148.42,0,0,1-16.77,69,4.93,4.93,0,0,0,2.11,6.65,4.91,4.91,0,0,0,6.65-2.11,160.1,160.1,0,0,0-29-186.7Z"/></svg>