<svg xmlns="http://www.w3.org/2000/svg" viewBox="0 0 60.98 60.98"><defs><style>.cls-1{fill:#fe5e3a;}.cls-2{fill:#00949b;}</style></defs><title>logo_2</title><g id="Слой_2" data-name="Слой 2"><g id="Слой_1-2" data-name="Слой 1"><circle class="cls-1" cx="14.98" cy="25.3" r="4.44"/><path class="cls-2" d="M22.51,38.31a4.44,4.44,0,0,0,8.37,3l6.58-18.6a4.43,4.43,0,1,0-8.36-3Z"/><path class="cls-2" d="M35.23,38.31a4.43,4.43,0,0,0,8.36,3l6.59-18.6a4.43,4.43,0,0,0-8.36-3Z"/><circle class="cls-1" cx="14.98" cy="39.79" r="4.44"/><path class="cls-2" d="M30.49,61A30.5,30.5,0,0,1,2.91,17.48a2,2,0,0,1,1.84-1.17,2.13,2.13,0,0,1,.87.19,2.05,2.05,0,0,1,1,2.72A26,26,0,0,0,4.08,30.49,26.42,26.42,0,0,0,44.9,52.63a5.57,5.57,0,1,1,2.55,3.2A30.28,30.28,0,0,1,30.49,61Z"/><path class="cls-2" d="M50.22,46.57A4.43,4.43,0,0,0,45.79,51a4.48,4.48,0,0,0,.5,2.06A27.56,27.56,0,0,1,5.57,18.73a.9.9,0,0,0-.43-1.2A.92.92,0,0,0,3.93,18a29.36,29.36,0,0,0,43.51,36.5,4.44,4.44,0,1,0,2.78-7.89Z"/><path class="cls-1" d="M55.76,45.61a2.07,2.07,0,0,1-.94-.23A2,2,0,0,1,54,42.63,26.07,26.07,0,0,0,56.9,30.49,26.44,26.44,0,0,0,30.49,4.08,26.13,26.13,0,0,0,15.24,8.91a5.64,5.64,0,0,1,.32,1.86,5.57,5.57,0,1,1-3-4.94,30.49,30.49,0,0,1,39.49,3.1,30.5,30.5,0,0,1,5.52,35.58A2,2,0,0,1,55.76,45.61Z"/><path class="cls-1" d="M51.25,9.73A29.3,29.3,0,0,0,12.62,7.2a4.43,4.43,0,1,0,1.8,3.57,4.38,4.38,0,0,0-.59-2.22A27.25,27.25,0,0,1,30.49,2.94,27.57,27.57,0,0,1,58,30.49,27.21,27.21,0,0,1,55,43.15a.9.9,0,0,0,.38,1.22.94.94,0,0,0,.42.11.9.9,0,0,0,.8-.49A29.35,29.35,0,0,0,51.25,9.73Z"/></g></g></svg>